<svg xmlns="http://www.w3.org/2000/svg" viewBox="0 0 849.2 207.7"><path d="m773.4 112.2h12.8v-39.2l-35.2-29.6-35.2 29.6v39.2h12.8l22.5-19 22.3 19m14.3 11.2h-18.4l-18.3-15.5-18.4 15.5h-18.4c-2.6 0-5-1-6.8-2.8-1.8-1.8-2.8-4.3-2.8-6.9l.1-41.4c0-2.6 1-5 2.8-6.8l.4-.4 43.1-36.3 43.6 36.7c1.8 1.8 2.8 4.2 2.8 6.8l.1 41.4c0 2.6-1 5-2.8 6.9s-4.4 2.8-7 2.8" fill="#55c1a8"></path><path d="m432 82.8c-4.4 0-8.6.8-12.7 2.4-4.1 1.6-7.5 3.9-10.3 6.8-.8-1-1.8-2.1-3-3.2-1.2-1.1-2.6-2.1-4.3-3-1.6-.9-3.5-1.6-5.6-2.2-2.2-.6-4.6-.8-7.3-.8-4.5 0-8.4.8-11.7 2.5-3.3 1.7-6.1 3.8-8.2 6.4l-.7-7.3h-20.2v66.2h21.1v-35.6c0-4.2 1.2-7.7 3.7-10.4 2.5-2.7 5.7-4.1 9.8-4.1 3.6 0 6.3 1.1 8.1 3.2 1.8 2.2 2.7 5.2 2.7 9.2v37.7h20.4v-35.6c0-4.2 1.2-7.7 3.7-10.4 2.4-2.7 5.7-4.1 9.8-4.1 3.6 0 6.3 1.1 8.1 3.2 1.8 2.2 2.7 5.2 2.7 9.2v37.7h21.1v-40.9c0-8.3-2.3-14.8-7-19.6-4.7-4.9-11.4-7.3-20.2-7.3m86.5 41.1c-.7 2.1-1.7 4-3.2 5.7-1.4 1.7-3.2 3-5.2 4-2.1 1-4.4 1.5-7 1.5-2.6 0-5-.5-7.1-1.5-2.1-1-3.8-2.3-5.2-4-1.4-1.7-2.4-3.6-3.2-5.7-.7-2.1-1.1-4.3-1.1-6.6s.4-4.4 1.1-6.6c.7-2.1 1.8-4 3.2-5.6 1.4-1.6 3.1-3 5.2-4 2.1-1 4.5-1.5 7.1-1.5 2.6 0 5 .5 7 1.5 2.1 1 3.8 2.3 5.2 4 1.4 1.6 2.5 3.5 3.2 5.6.7 2.1 1 4.3 1 6.6s-.3 4.5-1 6.6m11.2-31.5c-3.2-3.2-7.1-5.7-11.6-7.6-4.5-1.8-9.5-2.8-15-2.8s-10.5.9-15 2.8c-4.5 1.8-8.4 4.4-11.7 7.6-3.2 3.2-5.7 6.9-7.6 11.2-1.8 4.3-2.7 8.9-2.7 13.8 0 4.9.9 9.5 2.7 13.8 1.8 4.3 4.3 8 7.6 11.2 3.2 3.2 7.1 5.7 11.7 7.6 4.5 1.9 9.6 2.8 15 2.8s10.5-.9 15-2.8c4.5-1.9 8.4-4.4 11.6-7.6 3.2-3.2 5.7-6.9 7.5-11.2 1.8-4.3 2.7-8.9 2.7-13.8 0-4.9-.9-9.5-2.7-13.8-1.8-4.3-4.3-8-7.5-11.2m62.8-8.1l-15.7 43.5-16.3-43.5h-23.5l29 66.2h20l29.5-66.2zm40.6 26.1c0-1.4.3-2.8 1-4.3.6-1.5 1.6-2.8 2.8-4 1.2-1.2 2.8-2.2 4.6-3 1.9-.8 4-1.2 6.5-1.2 2.4 0 4.5.4 6.3 1.2 1.8.8 3.2 1.8 4.4 3 1.2 1.2 2.1 2.6 2.6 4 .6 1.5.9 2.9.9 4.3h-29.1m49 9.6c0-5.6-.7-10.7-2.2-15.3-1.5-4.7-3.6-8.7-6.5-12-2.9-3.3-6.4-6-10.6-7.8-4.2-1.9-9.1-2.8-14.7-2.8-5.6 0-10.6 1-15 2.9-4.4 1.9-8.1 4.5-11.1 7.7-3 3.2-5.4 6.9-7 11.2-1.6 4.3-2.4 8.7-2.4 13.3 0 5.3.9 10.1 2.6 14.5 1.7 4.4 4.2 8.1 7.5 11.2 3.3 3.1 7.3 5.5 12 7.3 4.7 1.7 10 2.6 15.8 2.6 4.4 0 8.3-.4 11.7-1.2 3.4-.8 6.4-1.7 8.9-2.8 2.5-1 4.5-2.1 6.1-3.2 1.6-1.1 2.7-1.9 3.5-2.3l-8.7-12.8c-1.6 1.1-4.1 2.5-7.5 4s-7.9 2.3-13.3 2.3c-5.6 0-9.9-1.3-13.1-4-3.2-2.7-4.8-5.8-4.9-9.4h49v-3.4zm-351 15.3c-1.6.7-3.4 1.1-5.6 1.1-2.8 0-4.9-.9-6.2-2.6-1.3-1.7-2-4.2-2-7.4v-26.1h17.7v-16h-17.7v-20h-21.1v20h-10.9v16h10.9v25c0 4.1.4 7.9 1.3 11.3.9 3.4 2.3 6.3 4.4 8.7 2.1 2.4 4.7 4.3 8.1 5.6 3.3 1.4 7.4 2 12.3 2 7 0 13.6-2.1 19.7-6.2l-6.7-13.7c-1.3.9-2.7 1.7-4.2 2.3m-239.4-52.3c-4.9 0-8.9 1-12 3.1-3.1 2.1-5.5 4.2-7.3 6.5l-.7-8.3h-20.2v66.2h21.1v-32.8c0-5.3 1.5-9.3 4.6-12.2 3.1-2.9 7.1-4.3 12.1-4.3 2.4 0 4.5.2 6.3.7l3.4-18c-.9-.3-1.7-.5-2.6-.6-1.3-.2-2.8-.3-4.7-.3m12.9 67.5h21.1v-66.2h-21.1zm77.5-29.5c0 4.3-1.2 7.5-3.5 9.5-2.3 2-5.7 3-10 3-4.6 0-8.1-1.4-10.5-4.2-2.4-2.8-3.6-6.6-3.6-11.4 0-2.4.4-4.8 1.1-7 .7-2.2 1.9-4.1 3.4-5.8 1.5-1.6 3.4-3 5.6-4 2.2-1 4.9-1.5 7.9-1.5 2.2 0 4.1.1 5.4.4 1.4.2 2.7.6 4.1 1.1v19.9zm-9.2-38.1c-6 0-11.4.8-16.2 2.5-4.8 1.7-9 4.1-12.5 7.3-3.5 3.2-6.2 6.9-8.1 11.3-1.9 4.4-2.9 9.2-2.9 14.6 0 4.6.7 8.8 2.1 12.7 1.4 3.9 3.4 7.2 6.1 10 2.6 2.8 5.9 5 9.8 6.6 3.9 1.6 8.2 2.3 13.1 2.3 7.3 0 13.2-1.8 17.6-5.5v4.7c0 4.9-1.4 8.6-4.1 11-2.7 2.4-6.5 3.7-11.3 3.7-3.7 0-7.1-.4-10.2-1.3-3.1-.9-6-2.1-8.7-3.7l-8.5 14.4c3.8 2.4 8 4.2 12.6 5.4 4.6 1.1 10 1.7 16.1 1.7 10.9 0 19.4-2.6 25.7-7.8 6.3-5.2 9.4-13.3 9.4-24.2v-60.8c-4.1-1.4-8.7-2.6-13.9-3.5-5-.9-10.4-1.4-16.1-1.4m82.3-.1c-3.8 0-7.6.7-11.3 2-3.7 1.4-6.7 3.3-8.9 5.9v-34.3h-21v94.2h21.1v-35.6c0-2 .3-3.8.9-5.6.6-1.7 1.5-3.3 2.6-4.6 1.2-1.3 2.6-2.4 4.4-3.2 1.8-.8 3.8-1.2 6-1.2 3.4 0 6.2 1.1 8.2 3.2 2.1 2.2 3.1 5.2 3.1 9v37.8h21v-40.9c0-8.8-2.4-15.5-7.1-20-4.8-4.5-11.1-6.7-19-6.7m-132.2-24.3c-1.1-.9-2.3-1.6-3.6-2-1.4-.5-2.8-.7-4.2-.7-1.4 0-2.9.2-4.2.7-1.4.5-2.6 1.1-3.7 2-1.1.9-1.9 2-2.6 3.3-.6 1.3-1 2.9-1 4.6 0 1.7.3 3.2 1 4.5.6 1.3 1.5 2.4 2.6 3.3 1.1.9 2.3 1.6 3.7 2 1.4.4 2.8.7 4.2.7 1.4 0 2.9-.2 4.2-.7 1.4-.4 2.6-1.1 3.6-2 1.1-.9 1.9-2 2.5-3.3.6-1.3 1-2.8 1-4.5 0-1.7-.3-3.2-1-4.6-.6-1.3-1.4-2.5-2.5-3.3" fill="#262638"></path></svg>